<?xml version="1.0" encoding="UTF-8" standalone="no"?><!DOCTYPE svg PUBLIC "-//W3C//DTD SVG 1.1//EN" "http://www.w3.org/Graphics/SVG/1.1/DTD/svg11.dtd"><svg width="50%" height="50%" viewBox="0 0 700 300" version="1.1" xmlns="http://www.w3.org/2000/svg" xmlns:xlink="http://www.w3.org/1999/xlink" xml:space="preserve" xmlns:serif="http://www.serif.com/" style="fill-rule:evenodd;clip-rule:evenodd;stroke-linejoin:round;stroke-miterlimit:2;"><g><path d="M108.25,214.75c-10.667,-0 -20.083,-1.833 -28.25,-5.5c-8.167,-3.667 -14.5,-9.75 -19,-18.25c-4.5,-8.5 -6.75,-19.917 -6.75,-34.25c0,-14.167 2.417,-26.125 7.25,-35.875c4.833,-9.75 11.542,-17.125 20.125,-22.125c8.583,-5 18.292,-7.5 29.125,-7.5c7.167,-0 13.542,0.833 19.125,2.5c5.583,1.667 10.958,4.25 16.125,7.75l0,-57.75l27.25,-0l0,168.5l-23.25,-0l-1.75,-11.75c-5.333,4.833 -11.167,8.417 -17.5,10.75c-6.333,2.333 -13.833,3.5 -22.5,3.5Zm7.25,-20.5c12.167,-0 22.333,-4.167 30.5,-12.5l0,-59.25c-7.833,-7 -17.667,-10.5 -29.5,-10.5c-11.5,-0 -20.167,3.833 -26,11.5c-5.833,7.667 -8.75,18.833 -8.75,33.5c0,14.167 2.708,23.917 8.125,29.25c5.417,5.333 13.958,8 25.625,8Z" style="fill-rule:nonzero;"/><path d="M214.75,69l0,-22.5l29.75,-0l0,22.5l-29.75,-0Zm2.25,143.25l0,-97.75l-18,-0l2.5,-20.75l42.75,-0l0,118.5l-27.25,-0Z" style="fill-rule:nonzero;"/><path d="M324,256.25c-8.833,-0 -17.667,-0.542 -26.5,-1.625c-8.833,-1.083 -16.333,-2.708 -22.5,-4.875l0,-21c6.667,2.167 14.333,3.833 23,5c8.667,1.167 16.917,1.75 24.75,1.75c12,-0 20.75,-0.667 26.25,-2c5.5,-1.333 8.25,-4.333 8.25,-9c0,-3.5 -1.333,-5.958 -4,-7.375c-2.667,-1.417 -7.75,-2.125 -15.25,-2.125l-32,-0c-21.5,-0 -32.25,-7.583 -32.25,-22.75c0,-4.833 1.417,-9.333 4.25,-13.5c2.833,-4.167 7.333,-7.333 13.5,-9.5c-6.833,-3.333 -11.875,-7.917 -15.125,-13.75c-3.25,-5.833 -4.875,-12.833 -4.875,-21c0,-15.167 4.542,-26.167 13.625,-33c9.083,-6.833 22.708,-10.25 40.875,-10.25c3.833,-0 7.833,0.292 12,0.875c4.167,0.583 7.417,1.125 9.75,1.625l43.5,-0l-0.75,17.75l-20,-0c3.167,2.667 5.5,6 7,10c1.5,4 2.25,8.333 2.25,13c0,12.667 -3.833,22.625 -11.5,29.875c-7.667,7.25 -19.25,10.875 -34.75,10.875c-2.667,-0 -5.125,-0.125 -7.375,-0.375c-2.25,-0.25 -4.708,-0.542 -7.375,-0.875c-5,0.5 -9.5,1.833 -13.5,4c-4,2.167 -6,5.083 -6,8.75c0,2.5 1,4.292 3,5.375c2,1.083 5.333,1.625 10,1.625l33.25,-0c11.833,-0 20.958,2.542 27.375,7.625c6.417,5.083 9.625,12.458 9.625,22.125c0,11.667 -5.042,20.042 -15.125,25.125c-10.083,5.083 -24.542,7.625 -43.375,7.625Zm2,-98.25c10.833,-0 18.375,-1.833 22.625,-5.5c4.25,-3.667 6.375,-9.917 6.375,-18.75c0,-8.833 -2.125,-15.25 -6.375,-19.25c-4.25,-4 -11.792,-6 -22.625,-6c-10.167,-0 -17.583,1.917 -22.25,5.75c-4.667,3.833 -7,10.333 -7,19.5c0,8.5 2.208,14.667 6.625,18.5c4.417,3.833 11.958,5.75 22.625,5.75Z" style="fill-rule:nonzero;"/><path d="M458.75,256.25c-8.833,-0 -17.667,-0.542 -26.5,-1.625c-8.833,-1.083 -16.333,-2.708 -22.5,-4.875l0,-21c6.667,2.167 14.333,3.833 23,5c8.667,1.167 16.917,1.75 24.75,1.75c12,-0 20.75,-0.667 26.25,-2c5.5,-1.333 8.25,-4.333 8.25,-9c0,-3.5 -1.333,-5.958 -4,-7.375c-2.667,-1.417 -7.75,-2.125 -15.25,-2.125l-32,-0c-21.5,-0 -32.25,-7.583 -32.25,-22.75c0,-4.833 1.417,-9.333 4.25,-13.5c2.833,-4.167 7.333,-7.333 13.5,-9.5c-6.833,-3.333 -11.875,-7.917 -15.125,-13.75c-3.25,-5.833 -4.875,-12.833 -4.875,-21c0,-15.167 4.542,-26.167 13.625,-33c9.083,-6.833 22.708,-10.25 40.875,-10.25c3.833,-0 7.833,0.292 12,0.875c4.167,0.583 7.417,1.125 9.75,1.625l43.5,-0l-0.75,17.75l-20,-0c3.167,2.667 5.5,6 7,10c1.5,4 2.25,8.333 2.25,13c0,12.667 -3.833,22.625 -11.5,29.875c-7.667,7.25 -19.25,10.875 -34.75,10.875c-2.667,-0 -5.125,-0.125 -7.375,-0.375c-2.25,-0.25 -4.708,-0.542 -7.375,-0.875c-5,0.5 -9.5,1.833 -13.5,4c-4,2.167 -6,5.083 -6,8.75c0,2.5 1,4.292 3,5.375c2,1.083 5.333,1.625 10,1.625l33.25,-0c11.833,-0 20.958,2.542 27.375,7.625c6.417,5.083 9.625,12.458 9.625,22.125c0,11.667 -5.042,20.042 -15.125,25.125c-10.083,5.083 -24.542,7.625 -43.375,7.625Zm2,-98.25c10.833,-0 18.375,-1.833 22.625,-5.5c4.25,-3.667 6.375,-9.917 6.375,-18.75c0,-8.833 -2.125,-15.25 -6.375,-19.25c-4.25,-4 -11.792,-6 -22.625,-6c-10.167,-0 -17.583,1.917 -22.25,5.75c-4.667,3.833 -7,10.333 -7,19.5c0,8.5 2.208,14.667 6.625,18.5c4.417,3.833 11.958,5.75 22.625,5.75Z" style="fill-rule:nonzero;"/><path d="M576.25,214.75c-7.5,-0 -14.458,-1.333 -20.875,-4c-6.417,-2.667 -11.542,-6.708 -15.375,-12.125c-3.833,-5.417 -5.75,-12.125 -5.75,-20.125c0,-11.333 3.875,-20.458 11.625,-27.375c7.75,-6.917 19.708,-10.375 35.875,-10.375l38,-0l0,-5.25c0,-5.667 -0.875,-10.167 -2.625,-13.5c-1.75,-3.333 -4.917,-5.75 -9.5,-7.25c-4.583,-1.5 -11.292,-2.25 -20.125,-2.25c-14,-0 -27.083,2.083 -39.25,6.25l0,-20.25c5.333,-2.167 11.833,-3.917 19.5,-5.25c7.667,-1.333 15.917,-2 24.75,-2c17.333,-0 30.542,3.5 39.625,10.5c9.083,7 13.625,18.417 13.625,34.25l0,76.25l-23.25,-0l-1.75,-12c-4.833,4.667 -10.792,8.25 -17.875,10.75c-7.083,2.5 -15.958,3.75 -26.625,3.75Zm7.25,-19.5c8.167,-0 15.292,-1.375 21.375,-4.125c6.083,-2.75 11.042,-6.458 14.875,-11.125l0,-20.75l-37.5,-0c-8,-0 -13.792,1.542 -17.375,4.625c-3.583,3.083 -5.375,7.792 -5.375,14.125c0,6.167 2.083,10.583 6.25,13.25c4.167,2.667 10.083,4 17.75,4Z" style="fill-rule:nonzero;"/></g></svg>