<svg viewBox="0 0 512 512" xmlns="http://www.w3.org/2000/svg" fill-rule="evenodd" clip-rule="evenodd" stroke-linejoin="round" stroke-miterlimit="2"><style>.prefix__line{fill:#231f20;fill-rule:nonzero}@media (prefers-color-scheme:dark){.prefix__line{fill:#fff}}</style><path class="prefix__line" d="M381.725 202.527a160.266 160.266 0 01-.847 20.03c1.596-14.005.766-22.945.766-22.945.032.977.065 1.938.081 2.915m26.3-.505c.097 19.542-2.328 37.211-6.497 53.105 4.625-17.132 6.839-34.964 6.497-53.105m-237.838-90.559h-15.502v26.3h15.502c83.036 0 153.109 61.686 165.892 141.611 5.309-8.516 9.673-17.636 13.11-27.326a146.083 146.083 0 003.696-12.099c-27.244-74.697-99.32-128.486-182.698-128.486"/><path class="prefix__line" d="M408.025 202.016c.098 19.542-2.328 37.21-6.497 53.104-.017.017-.017.049-.017.065a72.17 72.17 0 01-.683 2.493c-7.313 25.647-20.064 49.683-37.699 70.74a4.823 4.823 0 01-.066.472c-12.017 14.249-24.492 24.932-34.637 32.39.048-.114.081-.244.13-.358a200.658 200.658 0 01-21.757 13.972c-.064.033-.113.049-.129.065-.017.016-.033.016-.033.016a202.464 202.464 0 01-12.002 6.14 202.464 202.464 0 01-12.848 5.487c-22.734 8.827-47.031 13.517-71.604 13.517H165.27c-20.307 0-36.82 16.513-36.82 36.819 0 20.308 16.513 36.82 36.82 36.82h1.335c46.037 0 91.064-18.971 123.52-52.062a171.467 171.467 0 0016.659-19.737l10.356-4.934c.864-.407 15.813-7.622 34.572-22.928-9.379 24.247-23.824 46.67-42.812 66.034-37.373 38.09-89.239 59.943-142.295 59.943h-1.335c-34.817 0-63.136-28.319-63.136-63.136 0-34.816 28.319-63.135 63.136-63.135h44.913c15.828 0 31.56-2.247 46.688-6.546a167.136 167.136 0 0013.956-4.625 163.785 163.785 0 0013.175-5.586c18.369-8.696 35.255-20.6 49.684-35.305 1.384-1.4 2.752-2.834 4.071-4.283 0-.098.016-.195.016-.293 10.829-11.676 19.004-23.824 25.192-35.696.017.082.017.146.034.228 9.021-17.197 14.916-35.778 17.375-55.026.065-.44.13-.879.179-1.303.098-.749.196-1.498.277-2.263a3.24 3.24 0 00.049-.554c1.595-14.005.765-22.945.765-22.945a153.84 153.84 0 00-.929-12.344 156.216 156.216 0 00-1.856-12.425c-14.688-77.694-83.67-137.035-165.11-137.035H128.45l.049 49.228h-.049v67.972h.114l.18 203.673c.015 16.903-6.564 32.797-18.5 44.75-11.953 11.953-27.83 18.532-44.734 18.532-34.817 0-63.184-28.319-63.217-63.152L2 124.631a13.18 13.18 0 013.859-9.315 13.112 13.112 0 019.299-3.859h60.79v26.3H28.332l.26 221.015c.033 20.339 16.594 36.885 36.918 36.885 9.869 0 19.151-3.843 26.12-10.829 6.987-6.986 10.814-16.252 10.814-26.121l-.212-220.95h-.033v-26.3h.016l-.016-17.359V87.03l-.065-62.37a13.11 13.11 0 013.86-9.299 13.112 13.112 0 019.299-3.859h98.456c96.731 0 178.253 72.369 192.192 165.794a172.712 172.712 0 011.433 12.393c.358 4.071.57 8.191.651 12.327"/><path d="M446.499 399.307c-20.752 0-37.637 16.888-37.637 37.64s16.885 37.634 37.637 37.634 37.638-16.882 37.638-37.634-16.886-37.64-37.638-37.64m0 100.772c-34.813 0-63.136-28.322-63.136-63.132 0-34.817 28.323-63.139 63.136-63.139s63.136 28.322 63.136 63.139c0 34.81-28.323 63.132-63.136 63.132" fill="#1fb622" fill-rule="nonzero"/></svg>
