<svg xmlns="http://www.w3.org/2000/svg" fill-rule="evenodd" stroke-linecap="round" stroke-linejoin="round" clip-rule="evenodd" viewBox="0 0 24 24"><path fill="none" stroke="#fff" stroke-width="2" d="M14 21.8c-.646.131-1.315.2-2 .2-5.519 0-10-4.481-10-10S6.481 2 12 2s10 4.481 10 10c0 .685-.069 1.354-.2 2M2 12h20"/><path fill="none" stroke="#fff" stroke-width="2" d="M13.194 20.517A15.339 15.339 0 0112 22a15.301 15.301 0 01-4-10 15.301 15.301 0 014-10 15.301 15.301 0 014 10"/><circle cx="17" cy="17" r="3" fill="none" stroke="#fff" stroke-width="2" transform="translate(.332 .332)"/><path fill="none" stroke="#fff" stroke-width="2" d="M21.332 21.332l-1.5-1.5"/></svg>