<svg clip-rule="evenodd" fill-rule="evenodd" stroke-linejoin="round" stroke-miterlimit="2" viewBox="0 0 1200 560" xmlns="http://www.w3.org/2000/svg"><g fill-rule="nonzero"><g fill="#231f20"><path d="m0 46.655h9.824c4.573 0 8.425-.815 11.557-2.446 3.132-1.632 5.489-4.169 7.073-7.61 1.584-3.442 2.376-7.889 2.376-13.343 0-5.407-.792-9.825-2.376-13.254s-3.935-5.953-7.055-7.574c-3.121-1.62-6.966-2.429-11.539-2.429h-9.86zm10.467 13.254h-25.936v-73.163h26.151c7.359 0 13.694 1.458 19.005 4.376s9.401 7.103 12.271 12.557 4.305 11.979 4.305 19.577c0 7.621-1.435 14.171-4.305 19.648-2.87 5.479-6.978 9.682-12.325 12.611-5.346 2.93-11.735 4.394-19.166 4.394" transform="translate(255.469 440.403)"/><path d="m0 33.079c2.524 0 4.632-.719 6.324-2.16 1.69-1.442 2.97-3.413 3.84-5.913.869-2.5 1.304-5.347 1.304-8.538 0-3.192-.435-6.038-1.304-8.538-.87-2.501-2.15-4.477-3.84-5.931-1.692-1.452-3.8-2.179-6.324-2.179-2.548 0-4.686.727-6.412 2.179-1.727 1.454-3.025 3.43-3.894 5.931-.87 2.5-1.304 5.346-1.304 8.538 0 3.191.434 6.038 1.304 8.538.869 2.5 2.167 4.471 3.894 5.913 1.726 1.441 3.864 2.16 6.412 2.16m-.071 11.79c-5.55 0-10.343-1.185-14.379-3.555-4.037-2.37-7.151-5.68-9.342-9.931s-3.287-9.188-3.287-14.808c0-5.669 1.096-10.629 3.287-14.879 2.191-4.252 5.305-7.561 9.342-9.932 4.036-2.37 8.829-3.554 14.379-3.554 5.549 0 10.342 1.184 14.379 3.554 4.037 2.371 7.15 5.68 9.342 9.932 2.191 4.25 3.287 9.21 3.287 14.879 0 5.62-1.096 10.557-3.287 14.808-2.192 4.251-5.305 7.561-9.342 9.931s-8.83 3.555-14.379 3.555" transform="translate(337.742 456.515)"/><path d="m0 55.587v-54.873h14.504v9.682h.643c1.144-3.216 3.048-5.752 5.716-7.61 2.667-1.857 5.859-2.786 9.574-2.786 3.763 0 6.966.936 9.61 2.804 2.644 1.87 4.406 4.4 5.287 7.592h.572c1.119-3.144 3.15-5.663 6.091-7.556 2.941-1.894 6.424-2.84 10.449-2.84 5.121 0 9.283 1.625 12.486 4.876s4.805 7.855 4.805 13.808v36.903h-15.183v-33.902c0-3.048-.81-5.335-2.429-6.86-1.62-1.523-3.644-2.286-6.073-2.286-2.763 0-4.918.875-6.467 2.626-1.548 1.75-2.322 4.055-2.322 6.913v33.509h-14.753v-34.225c0-2.69-.769-4.834-2.305-6.429-1.536-1.596-3.555-2.394-6.056-2.394-1.691 0-3.209.424-4.554 1.268-1.346.845-2.411 2.025-3.197 3.538-.787 1.512-1.179 3.281-1.179 5.304v32.938z" transform="translate(374.609 444.725)"/><path d="m0 35.617c2.238 0 4.215-.446 5.93-1.339s3.06-2.101 4.037-3.627c.976-1.524 1.464-3.251 1.464-5.18v-5.823c-.476.31-1.125.589-1.946.839-.822.251-1.745.478-2.769.679-1.025.203-2.049.382-3.072.536-1.024.155-1.954.292-2.787.411-1.786.262-3.346.679-4.68 1.25s-2.37 1.34-3.108 2.305-1.107 2.161-1.107 3.59c0 2.072.755 3.65 2.268 4.734 1.512 1.083 3.436 1.625 5.77 1.625m-4.358 10.503c-3.502 0-6.622-.613-9.36-1.84-2.74-1.226-4.901-3.048-6.485-5.466-1.584-2.417-2.376-5.435-2.376-9.056 0-3.048.56-5.609 1.68-7.681 1.119-2.071 2.643-3.738 4.572-5.001 1.93-1.262 4.126-2.215 6.592-2.857 2.465-.645 5.054-1.096 7.77-1.359 3.191-.333 5.763-.648 7.716-.946s3.37-.744 4.251-1.34c.881-.595 1.323-1.477 1.323-2.644v-.213c0-2.263-.71-4.013-2.126-5.252-1.417-1.239-3.424-1.859-6.02-1.859-2.739 0-4.918.603-6.537 1.805-1.621 1.203-2.692 2.71-3.215 4.519l-14.076-1.143c.714-3.334 2.119-6.222 4.215-8.663 2.096-2.442 4.805-4.323 8.128-5.645 3.322-1.322 7.174-1.982 11.557-1.982 3.048 0 5.971.357 8.77 1.071 2.798.715 5.287 1.822 7.466 3.322 2.18 1.501 3.9 3.424 5.162 5.77 1.263 2.346 1.894 5.15 1.894 8.413v37.011h-14.433v-7.61h-.428c-.882 1.715-2.06 3.221-3.537 4.519-1.477 1.299-3.251 2.312-5.323 3.037-2.072.727-4.466 1.09-7.18 1.09" transform="translate(486.355 455.228)"/></g><path d="m0 15.397c-2.263 0-4.198-.756-5.805-2.269-1.608-1.512-2.412-3.328-2.412-5.447 0-2.097.804-3.9 2.412-5.412 1.607-1.513 3.542-2.269 5.805-2.269 2.262 0 4.198.756 5.805 2.269 1.608 1.512 2.412 3.315 2.412 5.412 0 2.119-.804 3.935-2.412 5.447-1.607 1.513-3.543 2.269-5.805 2.269" fill="#1fb622" transform="translate(532.367 422.969)"/></g><path d="m524.722 445.439h15.219v54.873h-15.219z" fill="#231f20"/><g fill-rule="nonzero"><path d="m0-7.859v31.723h-15.219v-54.873h14.504v9.681h.643c1.215-3.191 3.251-5.721 6.109-7.592 2.858-1.868 6.323-2.803 10.396-2.803 3.81 0 7.132.833 9.967 2.5 2.834 1.668 5.038 4.044 6.609 7.128 1.572 3.084 2.359 6.757 2.359 11.02v34.939h-15.22v-32.224c.023-3.357-.834-5.983-2.572-7.878-1.739-1.892-4.132-2.839-7.18-2.839-2.049 0-3.853.441-5.413 1.322s-2.775 2.162-3.644 3.84c-.869 1.679-1.316 3.698-1.339 6.056" fill="#231f20" transform="translate(567.304 476.448)"/><path d="m0 46.655h9.824c4.572 0 8.425-.815 11.558-2.446 3.131-1.632 5.489-4.169 7.072-7.61 1.584-3.442 2.376-7.889 2.376-13.343 0-5.407-.792-9.825-2.376-13.254-1.583-3.429-3.935-5.953-7.055-7.574-3.12-1.62-6.966-2.429-11.539-2.429h-9.86zm10.467 13.254h-25.936v-73.163h26.151c7.359 0 13.694 1.458 19.005 4.376s9.402 7.103 12.271 12.557c2.87 5.454 4.305 11.979 4.305 19.577 0 7.621-1.435 14.171-4.305 19.648-2.869 5.479-6.979 9.682-12.324 12.611-5.348 2.93-11.737 4.394-19.167 4.394" fill="#231f20" transform="translate(653.72 440.403)"/><path d="m0 15.397c-2.263 0-4.198-.756-5.806-2.269-1.608-1.512-2.412-3.328-2.412-5.447 0-2.097.804-3.9 2.412-5.412 1.608-1.513 3.543-2.269 5.806-2.269s4.197.756 5.805 2.269c1.608 1.512 2.411 3.315 2.411 5.412 0 2.119-.803 3.935-2.411 5.447-1.608 1.513-3.542 2.269-5.805 2.269" fill="#1fb622" transform="translate(718.775 422.969)"/></g><g fill="#231f20"><path d="m711.13 445.439h15.218v54.873h-15.218z"/><g fill-rule="nonzero"><path d="m0 9.431c2.452 0 4.531-.613 6.233-1.84 1.703-1.226 3.014-2.989 3.93-5.287.917-2.298 1.376-5.055 1.376-8.27s-.452-6.007-1.358-8.377c-.905-2.371-2.214-4.21-3.93-5.52-1.715-1.31-3.799-1.965-6.251-1.965-2.501 0-4.608.674-6.323 2.019-1.716 1.345-3.014 3.21-3.894 5.591-.882 2.381-1.322 5.131-1.322 8.252 0 3.168.446 5.901 1.34 8.199.892 2.298 2.19 4.072 3.893 5.323 1.702 1.25 3.805 1.875 6.306 1.875m-.322 33.938c-4.929 0-9.152-.673-12.664-2.018-3.513-1.346-6.306-3.174-8.377-5.483-2.073-2.311-3.419-4.907-4.037-7.789l14.075-1.893c.429 1.096 1.108 2.119 2.037 3.072s2.161 1.721 3.697 2.305c1.535.583 3.411.875 5.626.875 3.311 0 6.043-.805 8.199-2.412 2.155-1.608 3.234-4.293 3.234-8.055v-10.04h-.643c-.669 1.524-1.668 2.966-3.002 4.323-1.334 1.358-3.048 2.465-5.144 3.323-2.096.857-4.597 1.286-7.502 1.286-4.12 0-7.865-.958-11.236-2.876-3.37-1.917-6.049-4.859-8.038-8.825-1.988-3.963-2.982-8.983-2.982-15.057 0-6.216 1.012-11.407 3.036-15.575 2.024-4.167 4.722-7.287 8.092-9.36 3.37-2.072 7.067-3.108 11.092-3.108 3.073 0 5.644.517 7.716 1.554 2.073 1.036 3.746 2.322 5.02 3.858 1.273 1.535 2.257 3.043 2.948 4.519h.571v-9.217h15.112v55.409c0 4.667-1.144 8.574-3.43 11.718-2.287 3.143-5.448 5.507-9.484 7.091-4.037 1.583-8.677 2.375-13.916 2.375" transform="translate(763.536 478.663)"/><path d="m0 9.431c2.452 0 4.53-.613 6.233-1.84 1.703-1.226 3.013-2.989 3.93-5.287s1.375-5.055 1.375-8.27-.452-6.007-1.357-8.377c-.906-2.371-2.215-4.21-3.93-5.52s-3.799-1.965-6.251-1.965c-2.502 0-4.609.674-6.324 2.019s-3.013 3.21-3.894 5.591-1.321 5.131-1.321 8.252c0 3.168.445 5.901 1.339 8.199.892 2.298 2.19 4.072 3.893 5.323 1.703 1.25 3.805 1.875 6.307 1.875m-.322 33.938c-4.93 0-9.152-.673-12.665-2.018-3.512-1.346-6.305-3.174-8.377-5.483-2.073-2.311-3.418-4.907-4.037-7.789l14.076-1.893c.429 1.096 1.107 2.119 2.036 3.072s2.161 1.721 3.698 2.305c1.535.583 3.411.875 5.626.875 3.311 0 6.043-.805 8.199-2.412 2.155-1.608 3.234-4.293 3.234-8.055v-10.04h-.644c-.668 1.524-1.668 2.966-3.002 4.323-1.334 1.358-3.048 2.465-5.143 3.323-2.097.857-4.597 1.286-7.502 1.286-4.12 0-7.866-.958-11.236-2.876-3.37-1.917-6.049-4.859-8.038-8.825-1.988-3.963-2.983-8.983-2.983-15.057 0-6.216 1.012-11.407 3.037-15.575 2.023-4.167 4.722-7.287 8.091-9.36 3.37-2.072 7.067-3.108 11.093-3.108 3.072 0 5.644.517 7.716 1.554 2.072 1.036 3.746 2.322 5.019 3.858 1.274 1.535 2.258 3.043 2.948 4.519h.571v-9.217h15.113v55.409c0 4.667-1.144 8.574-3.431 11.718-2.286 3.143-5.447 5.507-9.484 7.091-4.036 1.583-8.676 2.375-13.915 2.375" transform="translate(827.233 478.663)"/><path d="m0 56.659c-5.645 0-10.497-1.148-14.557-3.447-4.061-2.299-7.188-5.562-9.379-9.789-2.191-4.228-3.286-9.235-3.286-15.023 0-5.643 1.095-10.597 3.286-14.86 2.191-4.264 5.282-7.586 9.272-9.968 3.988-2.382 8.675-3.572 14.058-3.572 3.619 0 6.995.577 10.127 1.732 3.131 1.156 5.871 2.888 8.216 5.198 2.346 2.311 4.174 5.209 5.485 8.699 1.309 3.489 1.964 7.568 1.964 12.235v4.181h-46.334v-9.432h32.009c0-2.19-.477-4.132-1.429-5.823-.953-1.691-2.269-3.019-3.949-3.984-1.678-.964-3.626-1.446-5.84-1.446-2.311 0-4.353.53-6.126 1.589-1.776 1.061-3.163 2.478-4.163 4.252-1 1.773-1.512 3.745-1.536 5.913v8.966c0 2.715.506 5.061 1.518 7.038 1.013 1.978 2.448 3.501 4.306 4.573 1.857 1.072 4.059 1.608 6.608 1.608 1.69 0 3.239-.239 4.645-.715 1.405-.477 2.607-1.191 3.608-2.144 1-.953 1.763-2.119 2.286-3.501l14.075.929c-.714 3.383-2.173 6.33-4.375 8.842-2.204 2.512-5.038 4.466-8.504 5.858-3.464 1.395-7.46 2.091-11.985 2.091" transform="translate(890.892 444.725)"/><path d="m0 55.658v-54.873h14.754v9.574h.572c1.001-3.405 2.68-5.984 5.037-7.734 2.358-1.75 5.074-2.625 8.146-2.625.762 0 1.584.047 2.465.142.88.095 1.655.227 2.322.393v13.504c-.716-.215-1.703-.404-2.966-.571-1.262-.167-2.417-.25-3.466-.25-2.238 0-4.232.481-5.982 1.446-1.751.966-3.132 2.305-4.145 4.019-1.012 1.714-1.518 3.693-1.518 5.931v31.044z" transform="translate(926.009 444.654)"/><path d="m0 9.79c.09 4.643-.101 9.241-.583 13.794 1.1-9.645.527-15.801.527-15.801.023.673.045 1.334.056 2.007m18.112-.348c.068 13.458-1.604 25.626-4.474 36.572 3.184-11.798 4.71-24.078 4.474-36.572m-163.79-62.364h-10.676v18.111h10.676c57.184 0 105.44 42.481 114.243 97.523 3.657-5.865 6.663-12.145 9.029-18.818 1.02-2.871 1.85-5.664 2.546-8.333-18.763-51.441-68.399-88.483-125.818-88.483" transform="translate(692.411 159.257)"/><path d="m0-74.062c.067 13.458-1.604 25.625-4.475 36.571-.011.012-.011.033-.011.045-.146.572-.303 1.144-.471 1.716-5.035 17.663-13.816 34.216-25.962 48.716-.012.113-.022.213-.045.326-8.276 9.813-16.867 17.169-23.853 22.306.033-.079.055-.169.089-.247-4.789 3.533-9.791 6.74-14.983 9.622-.045.022-.078.034-.09.045-.011.011-.021.011-.021.011-2.703 1.503-5.462 2.905-8.266 4.228-2.904 1.357-5.854 2.624-8.849 3.779-15.655 6.078-32.387 9.309-49.311 9.309h-30.929c-13.985 0-25.357 11.371-25.357 25.356s11.372 25.357 25.357 25.357h.919c31.704 0 62.713-13.066 85.064-35.854 4.205-4.284 8.041-8.837 11.472-13.593l7.133-3.397c.594-.28 10.889-5.249 23.809-15.79-6.46 16.698-16.408 32.14-29.484 45.474-25.738 26.232-61.456 41.282-97.994 41.282h-.919c-23.977 0-43.48-19.502-43.48-43.479s19.503-43.479 43.48-43.479h30.929c10.901 0 21.735-1.548 32.153-4.509 3.252-.919 6.46-1.984 9.612-3.185 3.072-1.144 6.1-2.433 9.072-3.846 12.65-5.989 24.28-14.187 34.216-24.314.953-.964 1.895-1.951 2.803-2.949 0-.067.012-.135.012-.202 7.457-8.041 13.087-16.407 17.349-24.583.01.056.01.101.022.158 6.213-11.843 10.273-24.639 11.966-37.895.045-.303.09-.605.124-.897.066-.516.134-1.032.19-1.559.023-.123.034-.258.034-.381 1.099-9.645.527-15.802.527-15.802-.101-2.86-.314-5.697-.64-8.501-.313-2.881-.74-5.741-1.278-8.556-10.115-53.505-57.621-94.372-113.706-94.372h-58.742l.034 33.902h-.034v46.811h.079l.123 140.261c.011 11.641-4.519 22.587-12.74 30.818-8.231 8.232-19.165 12.762-30.806 12.762-23.977 0-43.513-19.502-43.536-43.49l-.202-161.267c0-2.4.954-4.71 2.658-6.415 1.694-1.705 4.004-2.658 6.404-2.658h41.864v18.112h-32.791l.179 152.206c.022 14.007 11.427 25.401 25.424 25.401 6.796 0 13.188-2.647 17.988-7.458 4.811-4.811 7.447-11.192 7.447-17.988l-.146-152.161h-.023v-18.112h.011l-.011-11.954v-4.868l-.045-42.952c0-2.4.954-4.71 2.658-6.403 1.694-1.705 4.004-2.658 6.404-2.658h67.803c66.616 0 122.757 49.838 132.356 114.176.426 2.815.763 5.664.987 8.535.247 2.803.392 5.64.449 8.489" transform="translate(710.523 242.762)"/></g></g><path d="m0-51.838c-14.291 0-25.92 11.63-25.92 25.921 0 14.292 11.629 25.918 25.92 25.918s25.919-11.626 25.919-25.918c0-14.291-11.628-25.921-25.919-25.921m0 69.398c-23.975 0-43.479-19.503-43.479-43.477 0-23.976 19.504-43.481 43.479-43.481s43.479 19.505 43.479 43.481c0 23.974-19.504 43.477-43.479 43.477" fill="#1fb622" fill-rule="nonzero" transform="translate(737.018 356.401)"/></svg>