<?xml version="1.0" encoding="UTF-8" standalone="no"?>
<!DOCTYPE svg PUBLIC "-//W3C//DTD SVG 1.1//EN" "http://www.w3.org/Graphics/SVG/1.1/DTD/svg11.dtd">
<svg width="100%" height="100%" viewBox="0 0 1200 560" version="1.1" xmlns="http://www.w3.org/2000/svg" xmlns:xlink="http://www.w3.org/1999/xlink" xml:space="preserve" xmlns:serif="http://www.serif.com/" style="fill-rule:evenodd;clip-rule:evenodd;stroke-linejoin:round;stroke-miterlimit:2;">
    <g transform="matrix(1,0,0,1,255.469,440.403)">
        <path d="M0,46.655L9.824,46.655C14.397,46.655 18.249,45.84 21.381,44.209C24.513,42.577 26.87,40.04 28.454,36.599C30.038,33.157 30.83,28.71 30.83,23.256C30.83,17.849 30.038,13.431 28.454,10.002C26.87,6.573 24.519,4.049 21.399,2.428C18.278,0.808 14.433,-0.001 9.86,-0.001L0,-0.001L0,46.655ZM10.467,59.909L-15.469,59.909L-15.469,-13.254L10.682,-13.254C18.041,-13.254 24.376,-11.796 29.687,-8.878C34.998,-5.96 39.088,-1.775 41.958,3.679C44.828,9.133 46.263,15.658 46.263,23.256C46.263,30.877 44.828,37.427 41.958,42.904C39.088,48.383 34.98,52.586 29.633,55.515C24.287,58.445 17.898,59.909 10.467,59.909" style="fill:rgb(35,31,32);fill-rule:nonzero;"/>
    </g>
    <g transform="matrix(1,0,0,1,337.742,456.515)">
        <path d="M0,33.079C2.524,33.079 4.632,32.36 6.324,30.919C8.014,29.477 9.294,27.506 10.164,25.006C11.033,22.506 11.468,19.659 11.468,16.468C11.468,13.276 11.033,10.43 10.164,7.93C9.294,5.429 8.014,3.453 6.324,1.999C4.632,0.547 2.524,-0.18 0,-0.18C-2.548,-0.18 -4.686,0.547 -6.412,1.999C-8.139,3.453 -9.437,5.429 -10.306,7.93C-11.176,10.43 -11.61,13.276 -11.61,16.468C-11.61,19.659 -11.176,22.506 -10.306,25.006C-9.437,27.506 -8.139,29.477 -6.412,30.919C-4.686,32.36 -2.548,33.079 0,33.079M-0.071,44.869C-5.621,44.869 -10.414,43.684 -14.45,41.314C-18.487,38.944 -21.601,35.634 -23.792,31.383C-25.983,27.132 -27.079,22.195 -27.079,16.575C-27.079,10.906 -25.983,5.946 -23.792,1.696C-21.601,-2.556 -18.487,-5.865 -14.45,-8.236C-10.414,-10.606 -5.621,-11.79 -0.071,-11.79C5.478,-11.79 10.271,-10.606 14.308,-8.236C18.345,-5.865 21.458,-2.556 23.65,1.696C25.841,5.946 26.937,10.906 26.937,16.575C26.937,22.195 25.841,27.132 23.65,31.383C21.458,35.634 18.345,38.944 14.308,41.314C10.271,43.684 5.478,44.869 -0.071,44.869" style="fill:rgb(35,31,32);fill-rule:nonzero;"/>
    </g>
    <g transform="matrix(1,0,0,1,374.609,444.725)">
        <path d="M0,55.587L0,0.714L14.504,0.714L14.504,10.396L15.147,10.396C16.291,7.18 18.195,4.644 20.863,2.786C23.53,0.929 26.722,0 30.437,0C34.2,0 37.403,0.936 40.047,2.804C42.691,4.674 44.453,7.204 45.334,10.396L45.906,10.396C47.025,7.252 49.056,4.733 51.997,2.84C54.938,0.946 58.421,0 62.446,0C67.567,0 71.729,1.625 74.932,4.876C78.135,8.127 79.737,12.731 79.737,18.684L79.737,55.587L64.554,55.587L64.554,21.685C64.554,18.637 63.744,16.35 62.125,14.825C60.505,13.302 58.481,12.539 56.052,12.539C53.289,12.539 51.134,13.414 49.585,15.165C48.037,16.915 47.263,19.22 47.263,22.078L47.263,55.587L32.51,55.587L32.51,21.362C32.51,18.672 31.741,16.528 30.205,14.933C28.669,13.337 26.65,12.539 24.149,12.539C22.458,12.539 20.94,12.963 19.595,13.807C18.249,14.652 17.184,15.832 16.398,17.345C15.611,18.857 15.219,20.626 15.219,22.649L15.219,55.587L0,55.587Z" style="fill:rgb(35,31,32);fill-rule:nonzero;"/>
    </g>
    <g transform="matrix(1,0,0,1,486.355,455.228)">
        <path d="M0,35.617C2.238,35.617 4.215,35.171 5.93,34.278C7.645,33.385 8.99,32.177 9.967,30.651C10.943,29.127 11.431,27.4 11.431,25.471L11.431,19.648C10.955,19.958 10.306,20.237 9.485,20.487C8.663,20.738 7.74,20.965 6.716,21.166C5.691,21.369 4.667,21.548 3.644,21.702C2.62,21.857 1.69,21.994 0.857,22.113C-0.929,22.375 -2.489,22.792 -3.823,23.363C-5.157,23.934 -6.193,24.703 -6.931,25.668C-7.669,26.633 -8.038,27.829 -8.038,29.258C-8.038,31.33 -7.283,32.908 -5.77,33.992C-4.258,35.075 -2.334,35.617 0,35.617M-4.358,46.12C-7.86,46.12 -10.98,45.507 -13.718,44.28C-16.458,43.054 -18.619,41.232 -20.203,38.814C-21.787,36.397 -22.579,33.379 -22.579,29.758C-22.579,26.71 -22.019,24.149 -20.899,22.077C-19.78,20.006 -18.256,18.339 -16.327,17.076C-14.397,15.814 -12.201,14.861 -9.735,14.219C-7.27,13.574 -4.681,13.123 -1.965,12.86C1.226,12.527 3.798,12.212 5.751,11.914C7.704,11.616 9.121,11.17 10.002,10.574C10.883,9.979 11.325,9.097 11.325,7.93L11.325,7.717C11.325,5.454 10.615,3.704 9.199,2.465C7.782,1.226 5.775,0.606 3.179,0.606C0.44,0.606 -1.739,1.209 -3.358,2.411C-4.979,3.614 -6.05,5.121 -6.573,6.93L-20.649,5.787C-19.935,2.453 -18.53,-0.435 -16.434,-2.876C-14.338,-5.318 -11.629,-7.199 -8.306,-8.521C-4.984,-9.843 -1.132,-10.503 3.251,-10.503C6.299,-10.503 9.222,-10.146 12.021,-9.432C14.819,-8.717 17.308,-7.61 19.487,-6.11C21.667,-4.609 23.387,-2.686 24.649,-0.34C25.912,2.006 26.543,4.81 26.543,8.073L26.543,45.084L12.11,45.084L12.11,37.474L11.682,37.474C10.8,39.189 9.622,40.695 8.145,41.993C6.668,43.292 4.894,44.305 2.822,45.03C0.75,45.757 -1.644,46.12 -4.358,46.12" style="fill:rgb(35,31,32);fill-rule:nonzero;"/>
    </g>
    <g transform="matrix(1,0,0,1,532.367,422.969)">
        <path d="M0,15.397C-2.263,15.397 -4.198,14.641 -5.805,13.128C-7.413,11.616 -8.217,9.8 -8.217,7.681C-8.217,5.584 -7.413,3.781 -5.805,2.269C-4.198,0.756 -2.263,0 0,0C2.262,0 4.198,0.756 5.805,2.269C7.413,3.781 8.217,5.584 8.217,7.681C8.217,9.8 7.413,11.616 5.805,13.128C4.198,14.641 2.262,15.397 0,15.397" style="fill:rgb(31,182,34);fill-rule:nonzero;"/>
    </g>
    <g transform="matrix(1,0,0,1,99.653,165.985)">
        <rect x="425.069" y="279.454" width="15.219" height="54.873" style="fill:rgb(35,31,32);"/>
    </g>
    <g transform="matrix(1,0,0,1,567.304,476.448)">
        <path d="M0,-7.859L0,23.864L-15.219,23.864L-15.219,-31.009L-0.715,-31.009L-0.715,-21.328L-0.072,-21.328C1.143,-24.519 3.179,-27.049 6.037,-28.92C8.895,-30.788 12.36,-31.723 16.433,-31.723C20.243,-31.723 23.565,-30.89 26.4,-29.223C29.234,-27.555 31.438,-25.179 33.009,-22.095C34.581,-19.011 35.368,-15.338 35.368,-11.075L35.368,23.864L20.148,23.864L20.148,-8.36C20.171,-11.717 19.314,-14.343 17.576,-16.238C15.837,-18.13 13.444,-19.077 10.396,-19.077C8.347,-19.077 6.543,-18.636 4.983,-17.755C3.423,-16.874 2.208,-15.593 1.339,-13.915C0.47,-12.236 0.023,-10.217 0,-7.859" style="fill:rgb(35,31,32);fill-rule:nonzero;"/>
    </g>
    <g transform="matrix(1,0,0,1,653.72,440.403)">
        <path d="M0,46.655L9.824,46.655C14.396,46.655 18.249,45.84 21.382,44.209C24.513,42.577 26.871,40.04 28.454,36.599C30.038,33.157 30.83,28.71 30.83,23.256C30.83,17.849 30.038,13.431 28.454,10.002C26.871,6.573 24.519,4.049 21.399,2.428C18.279,0.808 14.433,-0.001 9.86,-0.001L0,-0.001L0,46.655ZM10.467,59.909L-15.469,59.909L-15.469,-13.254L10.682,-13.254C18.041,-13.254 24.376,-11.796 29.687,-8.878C34.998,-5.96 39.089,-1.775 41.958,3.679C44.828,9.133 46.263,15.658 46.263,23.256C46.263,30.877 44.828,37.427 41.958,42.904C39.089,48.383 34.979,52.586 29.634,55.515C24.286,58.445 17.897,59.909 10.467,59.909" style="fill:rgb(35,31,32);fill-rule:nonzero;"/>
    </g>
    <g transform="matrix(1,0,0,1,718.775,422.969)">
        <path d="M0,15.397C-2.263,15.397 -4.198,14.641 -5.806,13.128C-7.414,11.616 -8.218,9.8 -8.218,7.681C-8.218,5.584 -7.414,3.781 -5.806,2.269C-4.198,0.756 -2.263,0 0,0C2.263,0 4.197,0.756 5.805,2.269C7.413,3.781 8.216,5.584 8.216,7.681C8.216,9.8 7.413,11.616 5.805,13.128C4.197,14.641 2.263,15.397 0,15.397" style="fill:rgb(31,182,34);fill-rule:nonzero;"/>
    </g>
    <g transform="matrix(1,0,0,1,99.653,165.985)">
        <rect x="611.477" y="279.454" width="15.218" height="54.873" style="fill:rgb(35,31,32);"/>
    </g>
    <g transform="matrix(1,0,0,1,763.536,478.663)">
        <path d="M0,9.431C2.452,9.431 4.531,8.818 6.233,7.591C7.936,6.365 9.247,4.602 10.163,2.304C11.08,0.006 11.539,-2.751 11.539,-5.966C11.539,-9.181 11.087,-11.973 10.181,-14.343C9.276,-16.714 7.967,-18.553 6.251,-19.863C4.536,-21.173 2.452,-21.828 0,-21.828C-2.501,-21.828 -4.608,-21.154 -6.323,-19.809C-8.039,-18.464 -9.337,-16.599 -10.217,-14.218C-11.099,-11.837 -11.539,-9.087 -11.539,-5.966C-11.539,-2.798 -11.093,-0.065 -10.199,2.233C-9.307,4.531 -8.009,6.305 -6.306,7.556C-4.604,8.806 -2.501,9.431 0,9.431M-0.322,43.369C-5.251,43.369 -9.474,42.696 -12.986,41.351C-16.499,40.005 -19.292,38.177 -21.363,35.868C-23.436,33.557 -24.782,30.961 -25.4,28.079L-11.325,26.186C-10.896,27.282 -10.217,28.305 -9.288,29.258C-8.359,30.211 -7.127,30.979 -5.591,31.563C-4.056,32.146 -2.18,32.438 0.035,32.438C3.346,32.438 6.078,31.633 8.234,30.026C10.389,28.418 11.468,25.733 11.468,21.971L11.468,11.931L10.825,11.931C10.156,13.455 9.157,14.897 7.823,16.254C6.489,17.612 4.775,18.719 2.679,19.577C0.583,20.434 -1.918,20.863 -4.823,20.863C-8.943,20.863 -12.688,19.905 -16.059,17.987C-19.429,16.07 -22.108,13.128 -24.097,9.162C-26.085,5.199 -27.079,0.179 -27.079,-5.895C-27.079,-12.111 -26.067,-17.302 -24.043,-21.47C-22.019,-25.637 -19.321,-28.757 -15.951,-30.83C-12.581,-32.902 -8.884,-33.938 -4.859,-33.938C-1.786,-33.938 0.785,-33.421 2.857,-32.384C4.93,-31.348 6.603,-30.062 7.877,-28.526C9.15,-26.991 10.134,-25.483 10.825,-24.007L11.396,-24.007L11.396,-33.224L26.508,-33.224L26.508,22.185C26.508,26.852 25.364,30.759 23.078,33.903C20.791,37.046 17.63,39.41 13.594,40.994C9.557,42.577 4.917,43.369 -0.322,43.369" style="fill:rgb(35,31,32);fill-rule:nonzero;"/>
    </g>
    <g transform="matrix(1,0,0,1,827.233,478.663)">
        <path d="M0,9.431C2.452,9.431 4.53,8.818 6.233,7.591C7.936,6.365 9.246,4.602 10.163,2.304C11.08,0.006 11.538,-2.751 11.538,-5.966C11.538,-9.181 11.086,-11.973 10.181,-14.343C9.275,-16.714 7.966,-18.553 6.251,-19.863C4.536,-21.173 2.452,-21.828 0,-21.828C-2.502,-21.828 -4.609,-21.154 -6.324,-19.809C-8.039,-18.464 -9.337,-16.599 -10.218,-14.218C-11.099,-11.837 -11.539,-9.087 -11.539,-5.966C-11.539,-2.798 -11.094,-0.065 -10.2,2.233C-9.308,4.531 -8.01,6.305 -6.307,7.556C-4.604,8.806 -2.502,9.431 0,9.431M-0.322,43.369C-5.252,43.369 -9.474,42.696 -12.987,41.351C-16.499,40.005 -19.292,38.177 -21.364,35.868C-23.437,33.557 -24.782,30.961 -25.401,28.079L-11.325,26.186C-10.896,27.282 -10.218,28.305 -9.289,29.258C-8.36,30.211 -7.128,30.979 -5.591,31.563C-4.056,32.146 -2.18,32.438 0.035,32.438C3.346,32.438 6.078,31.633 8.234,30.026C10.389,28.418 11.468,25.733 11.468,21.971L11.468,11.931L10.824,11.931C10.156,13.455 9.156,14.897 7.822,16.254C6.488,17.612 4.774,18.719 2.679,19.577C0.582,20.434 -1.918,20.863 -4.823,20.863C-8.943,20.863 -12.689,19.905 -16.059,17.987C-19.429,16.07 -22.108,13.128 -24.097,9.162C-26.085,5.199 -27.08,0.179 -27.08,-5.895C-27.08,-12.111 -26.068,-17.302 -24.043,-21.47C-22.02,-25.637 -19.321,-28.757 -15.952,-30.83C-12.582,-32.902 -8.885,-33.938 -4.859,-33.938C-1.787,-33.938 0.785,-33.421 2.857,-32.384C4.929,-31.348 6.603,-30.062 7.876,-28.526C9.15,-26.991 10.134,-25.483 10.824,-24.007L11.395,-24.007L11.395,-33.224L26.508,-33.224L26.508,22.185C26.508,26.852 25.364,30.759 23.077,33.903C20.791,37.046 17.63,39.41 13.593,40.994C9.557,42.577 4.917,43.369 -0.322,43.369" style="fill:rgb(35,31,32);fill-rule:nonzero;"/>
    </g>
    <g transform="matrix(1,0,0,1,890.892,444.725)">
        <path d="M0,56.659C-5.645,56.659 -10.497,55.511 -14.557,53.212C-18.618,50.913 -21.745,47.65 -23.936,43.423C-26.127,39.195 -27.222,34.188 -27.222,28.4C-27.222,22.757 -26.127,17.803 -23.936,13.54C-21.745,9.276 -18.654,5.954 -14.664,3.572C-10.676,1.19 -5.989,0 -0.606,0C3.013,0 6.389,0.577 9.521,1.732C12.652,2.888 15.392,4.62 17.737,6.93C20.083,9.241 21.911,12.139 23.222,15.629C24.531,19.118 25.186,23.197 25.186,27.864L25.186,32.045L-21.148,32.045L-21.148,22.613L10.861,22.613C10.861,20.423 10.384,18.481 9.432,16.79C8.479,15.099 7.163,13.771 5.483,12.806C3.805,11.842 1.857,11.36 -0.357,11.36C-2.668,11.36 -4.71,11.89 -6.483,12.949C-8.259,14.01 -9.646,15.427 -10.646,17.201C-11.646,18.974 -12.158,20.946 -12.182,23.114L-12.182,32.08C-12.182,34.795 -11.676,37.141 -10.664,39.118C-9.651,41.096 -8.216,42.619 -6.358,43.691C-4.501,44.763 -2.299,45.299 0.25,45.299C1.94,45.299 3.489,45.06 4.895,44.584C6.3,44.107 7.502,43.393 8.503,42.44C9.503,41.487 10.266,40.321 10.789,38.939L24.864,39.868C24.15,43.251 22.691,46.198 20.489,48.71C18.285,51.222 15.451,53.176 11.985,54.568C8.521,55.963 4.525,56.659 0,56.659" style="fill:rgb(35,31,32);fill-rule:nonzero;"/>
    </g>
    <g transform="matrix(1,0,0,1,926.009,444.654)">
        <path d="M0,55.658L0,0.785L14.754,0.785L14.754,10.359L15.326,10.359C16.327,6.954 18.006,4.375 20.363,2.625C22.721,0.875 25.437,0 28.509,0C29.271,0 30.093,0.047 30.974,0.142C31.854,0.237 32.629,0.369 33.296,0.535L33.296,14.039C32.58,13.824 31.593,13.635 30.33,13.468C29.068,13.301 27.913,13.218 26.864,13.218C24.626,13.218 22.632,13.699 20.882,14.664C19.131,15.63 17.75,16.969 16.737,18.683C15.725,20.397 15.219,22.376 15.219,24.614L15.219,55.658L0,55.658Z" style="fill:rgb(35,31,32);fill-rule:nonzero;"/>
    </g>
    <g transform="matrix(1,0,0,1,692.411,159.257)">
        <path d="M0,9.79C0.09,14.433 -0.101,19.031 -0.583,23.584C0.517,13.939 -0.056,7.783 -0.056,7.783C-0.033,8.456 -0.011,9.117 0,9.79M18.112,9.442C18.18,22.9 16.508,35.068 13.638,46.014C16.822,34.216 18.348,21.936 18.112,9.442M-145.678,-52.922L-156.354,-52.922L-156.354,-34.811L-145.678,-34.811C-88.494,-34.811 -40.238,7.67 -31.435,62.712C-27.778,56.847 -24.772,50.567 -22.406,43.894C-21.386,41.023 -20.556,38.23 -19.86,35.561C-38.623,-15.88 -88.259,-52.922 -145.678,-52.922" style="fill:rgb(35,31,32);fill-rule:nonzero;"/>
    </g>
    <g transform="matrix(1,0,0,1,710.523,242.762)">
        <path d="M0,-74.062C0.067,-60.604 -1.604,-48.437 -4.475,-37.491C-4.486,-37.479 -4.486,-37.458 -4.486,-37.446C-4.632,-36.874 -4.789,-36.302 -4.957,-35.73C-9.992,-18.067 -18.773,-1.514 -30.919,12.986C-30.931,13.099 -30.941,13.199 -30.964,13.312C-39.24,23.125 -47.831,30.481 -54.817,35.618C-54.784,35.539 -54.762,35.449 -54.728,35.371C-59.517,38.904 -64.519,42.111 -69.711,44.993C-69.756,45.015 -69.789,45.027 -69.801,45.038C-69.812,45.049 -69.822,45.049 -69.822,45.049C-72.525,46.552 -75.284,47.954 -78.088,49.277C-80.992,50.634 -83.942,51.901 -86.937,53.056C-102.592,59.134 -119.324,62.365 -136.248,62.365L-167.177,62.365C-181.162,62.365 -192.534,73.736 -192.534,87.721C-192.534,101.706 -181.162,113.078 -167.177,113.078L-166.258,113.078C-134.554,113.078 -103.545,100.012 -81.194,77.224C-76.989,72.94 -73.153,68.387 -69.722,63.631L-62.589,60.234C-61.995,59.954 -51.7,54.985 -38.78,44.444C-45.24,61.142 -55.188,76.584 -68.264,89.918C-94.002,116.15 -129.72,131.2 -166.258,131.2L-167.177,131.2C-191.154,131.2 -210.657,111.698 -210.657,87.721C-210.657,63.744 -191.154,44.242 -167.177,44.242L-136.248,44.242C-125.347,44.242 -114.513,42.694 -104.095,39.733C-100.843,38.814 -97.635,37.749 -94.483,36.548C-91.411,35.404 -88.383,34.115 -85.411,32.702C-72.761,26.713 -61.131,18.515 -51.195,8.388C-50.242,7.424 -49.3,6.437 -48.392,5.439C-48.392,5.372 -48.38,5.304 -48.38,5.237C-40.923,-2.804 -35.293,-11.17 -31.031,-19.346C-31.021,-19.29 -31.021,-19.245 -31.009,-19.188C-24.796,-31.031 -20.736,-43.827 -19.043,-57.083C-18.998,-57.386 -18.953,-57.688 -18.919,-57.98C-18.853,-58.496 -18.785,-59.012 -18.729,-59.539C-18.706,-59.662 -18.695,-59.797 -18.695,-59.92C-17.596,-69.565 -18.168,-75.722 -18.168,-75.722C-18.269,-78.582 -18.482,-81.419 -18.808,-84.223C-19.121,-87.104 -19.548,-89.964 -20.086,-92.779C-30.201,-146.284 -77.707,-187.151 -133.792,-187.151L-192.534,-187.151L-192.5,-153.249L-192.534,-153.249L-192.534,-106.438L-192.455,-106.438L-192.332,33.823C-192.321,45.464 -196.851,56.41 -205.072,64.641C-213.303,72.873 -224.237,77.403 -235.878,77.403C-259.855,77.403 -279.391,57.901 -279.414,33.913L-279.616,-127.354C-279.616,-129.754 -278.662,-132.064 -276.958,-133.769C-275.264,-135.474 -272.954,-136.427 -270.554,-136.427L-228.69,-136.427L-228.69,-118.315L-261.481,-118.315L-261.302,33.891C-261.28,47.898 -249.875,59.292 -235.878,59.292C-229.082,59.292 -222.69,56.645 -217.89,51.834C-213.079,47.023 -210.443,40.642 -210.443,33.846L-210.589,-118.315L-210.612,-118.315L-210.612,-136.427L-210.601,-136.427L-210.612,-148.381L-210.612,-153.249L-210.657,-196.201C-210.657,-198.601 -209.703,-200.911 -207.999,-202.604C-206.305,-204.309 -203.995,-205.262 -201.595,-205.262L-133.792,-205.262C-67.176,-205.262 -11.035,-155.424 -1.436,-91.086C-1.01,-88.271 -0.673,-85.422 -0.449,-82.551C-0.202,-79.748 -0.057,-76.911 0,-74.062" style="fill:rgb(35,31,32);fill-rule:nonzero;"/>
    </g>
    <g transform="matrix(1,0,0,1,737.018,356.401)">
        <path d="M0,-51.838C-14.291,-51.838 -25.92,-40.208 -25.92,-25.917C-25.92,-11.625 -14.291,0.001 0,0.001C14.291,0.001 25.919,-11.625 25.919,-25.917C25.919,-40.208 14.291,-51.838 0,-51.838M0,17.56C-23.975,17.56 -43.479,-1.943 -43.479,-25.917C-43.479,-49.893 -23.975,-69.398 0,-69.398C23.975,-69.398 43.479,-49.893 43.479,-25.917C43.479,-1.943 23.975,17.56 0,17.56" style="fill:rgb(31,182,34);fill-rule:nonzero;"/>
    </g>
</svg>
